<svg xmlns="http://www.w3.org/2000/svg" width="1600" height="900" viewBox="0 0 1600 900" role="img" aria-label="Crowd energy visual"><defs><radialGradient id="a" cx="50%" cy="20%" r="75%"><stop stop-color="#28f06a" stop-opacity=".5"/><stop offset=".42" stop-color="#111"/><stop offset="1" stop-color="#030306"/></radialGradient><radialGradient id="b" cx="88%" cy="50%" r="65%"><stop stop-color="#ffd166" stop-opacity=".46"/><stop offset="1" stop-color="#030306" stop-opacity="0"/></radialGradient><filter id="blur"><feGaussianBlur stdDeviation="20"/></filter></defs><rect width="1600" height="900" fill="#030306"/><rect width="1600" height="900" fill="url(#a)"/><rect width="1600" height="900" fill="url(#b)"/><g filter="url(#blur)" opacity=".65"><circle cx="300" cy="210" r="95" fill="#57d8ff"/><circle cx="780" cy="145" r="95" fill="#fff"/><circle cx="1210" cy="240" r="115" fill="#ffd166"/></g><g opacity=".28" fill="#fff"><polygon points="240,0 400,0 760,900 520,900"/><polygon points="1220,0 1400,0 1010,900 780,900"/></g><g opacity=".9" fill="rgba(255,255,255,.34)"><circle cx="90" cy="780" r="28"/><circle cx="180" cy="810" r="23"/><circle cx="280" cy="770" r="32"/><circle cx="385" cy="820" r="25"/><circle cx="500" cy="780" r="31"/><circle cx="610" cy="818" r="24"/><circle cx="720" cy="778" r="29"/><circle cx="835" cy="815" r="24"/><circle cx="950" cy="776" r="33"/><circle cx="1075" cy="820" r="24"/><circle cx="1195" cy="774" r="31"/><circle cx="1320" cy="818" r="24"/><circle cx="1440" cy="780" r="32"/></g><g stroke="#fff" stroke-width="16" stroke-linecap="round" opacity=".34"><path d="M170 760l-34-110M280 750l35-120M475 758l-28-125M720 750l40-130M990 758l-36-130M1210 748l36-118M1380 760l-25-130"/></g><g transform="translate(800 720)"><rect x="-360" y="-60" width="720" height="120" rx="22" fill="rgba(0,0,0,.78)" stroke="rgba(255,255,255,.16)"/><circle cx="-215" cy="0" r="58" fill="#10131b" stroke="rgba(255,255,255,.28)" stroke-width="8"/><circle cx="215" cy="0" r="58" fill="#10131b" stroke="rgba(255,255,255,.28)" stroke-width="8"/><rect x="-70" y="-35" width="140" height="70" rx="12" fill="#171717"/></g></svg>