<svg xmlns="http://www.w3.org/2000/svg" width="1600" height="900" viewBox="0 0 1600 900" role="img" aria-label="Premium DJ hero visual"><defs><radialGradient id="a" cx="72%" cy="30%" r="70%"><stop offset="0" stop-color="#ffd166" stop-opacity=".55"/><stop offset=".38" stop-color="#171717"/><stop offset="1" stop-color="#030306"/></radialGradient><radialGradient id="b" cx="18%" cy="78%" r="60%"><stop offset="0" stop-color="#28f06a" stop-opacity=".42"/><stop offset="1" stop-color="#030306" stop-opacity="0"/></radialGradient><linearGradient id="c" x1="0" x2="1"><stop stop-color="#fff" stop-opacity=".5"/><stop offset="1" stop-color="#fff" stop-opacity="0"/></linearGradient><filter id="blur"><feGaussianBlur stdDeviation="22"/></filter></defs><rect width="1600" height="900" fill="#030306"/><rect width="1600" height="900" fill="url(#a)"/><rect width="1600" height="900" fill="url(#b)"/><g opacity=".35"><polygon points="780,0 960,0 550,900 250,900" fill="url(#c)"/><polygon points="1150,0 1270,0 1500,900 1260,900" fill="url(#c)"/></g><g filter="url(#blur)" opacity=".6"><circle cx="1120" cy="210" r="125" fill="#ffd166"/><circle cx="1320" cy="360" r="90" fill="#57d8ff"/><circle cx="880" cy="150" r="60" fill="#fff"/></g><g transform="translate(980 285)"><circle r="72" fill="#12151c" stroke="rgba(255,255,255,.3)" stroke-width="6"/><rect x="-62" y="-20" width="124" height="30" rx="10" fill="#050506"/><path d="M-38 18c22 28 58 28 80 0" fill="none" stroke="rgba(255,255,255,.55)" stroke-width="10" stroke-linecap="round"/><path d="M-98 105c28-54 168-54 196 0l38 240h-272z" fill="#f1e5cf"/></g><g transform="translate(940 720)"><rect x="-380" y="-70" width="760" height="140" rx="24" fill="rgba(0,0,0,.72)" stroke="rgba(255,255,255,.14)"/><circle cx="-230" cy="0" r="65" fill="#111827" stroke="rgba(255,255,255,.25)" stroke-width="9"/><circle cx="230" cy="0" r="65" fill="#111827" stroke="rgba(255,255,255,.25)" stroke-width="9"/><rect x="-85" y="-42" width="170" height="84" rx="12" fill="#171717"/><g stroke="#ffd166" stroke-width="5"><path d="M-56-25v50M-20-35v70M18-22v44M55-31v62"/></g></g><g opacity=".22"><circle cx="130" cy="760" r="25" fill="#fff"/><circle cx="230" cy="800" r="20" fill="#fff"/><circle cx="340" cy="765" r="30" fill="#fff"/><circle cx="470" cy="805" r="22" fill="#fff"/></g></svg>