<svg xmlns="http://www.w3.org/2000/svg" width="1200" height="1500" viewBox="0 0 1200 1500" role="img" aria-label="European lifestyle artist visual"><defs><linearGradient id="sky" x1="0" y1="0" x2="0" y2="1"><stop stop-color="#ffd166"/><stop offset=".42" stop-color="#2b1e19"/><stop offset="1" stop-color="#030306"/></linearGradient><radialGradient id="sun" cx="35%" cy="18%" r="35%"><stop stop-color="#fff2c2"/><stop offset="1" stop-color="#ffd166" stop-opacity="0"/></radialGradient><filter id="blur"><feGaussianBlur stdDeviation="18"/></filter></defs><rect width="1200" height="1500" fill="url(#sky)"/><rect width="1200" height="1500" fill="url(#sun)"/><path d="M0 660c160-70 280-40 430-92 190-66 370-80 770 0v932H0z" fill="#050506" opacity=".72"/><path d="M0 820h1200v680H0z" fill="#030306" opacity=".58"/><g opacity=".4" fill="#fff3"><rect x="40" y="520" width="100" height="190" rx="8"/><rect x="168" y="450" width="120" height="260" rx="8"/><rect x="312" y="500" width="92" height="210" rx="8"/><rect x="820" y="480" width="112" height="230" rx="8"/><rect x="962" y="420" width="132" height="290" rx="8"/></g><path d="M0 850c230-80 410-100 620-45 240 64 390 55 580-15v170c-280 70-505 25-690 0-220-30-360 0-510 58z" fill="#57d8ff" opacity=".2"/><g transform="translate(600 520)"><circle r="118" fill="#151923" stroke="rgba(255,255,255,.28)" stroke-width="8"/><rect x="-100" y="-34" width="200" height="48" rx="16" fill="#050506"/><path d="M-55 38c32 38 82 38 114 0" fill="none" stroke="rgba(255,255,255,.55)" stroke-width="15" stroke-linecap="round"/></g><g transform="translate(600 790)"><path d="M-205 0c60-100 350-100 410 0l80 430h-570z" fill="#f1e5cf"/><path d="M-95 35h190l-58 215h-74z" fill="#040507" opacity=".18"/></g><rect x="0" y="1240" width="1200" height="260" fill="#030306" opacity=".68"/><path d="M0 1200h1200" stroke="#ffd166" stroke-width="6" opacity=".24"/></svg>