<svg xmlns="http://www.w3.org/2000/svg" width="1600" height="900" viewBox="0 0 1600 900" role="img" aria-label="Live DJ performance visual"><defs><radialGradient id="a" cx="65%" cy="25%" r="70%"><stop offset="0" stop-color="#ff4338" stop-opacity=".55"/><stop offset=".44" stop-color="#111"/><stop offset="1" stop-color="#030306"/></radialGradient><radialGradient id="b" cx="85%" cy="60%" r="55%"><stop stop-color="#57d8ff" stop-opacity=".42"/><stop offset="1" stop-color="#030306" stop-opacity="0"/></radialGradient><filter id="blur"><feGaussianBlur stdDeviation="18"/></filter></defs><rect width="1600" height="900" fill="#030306"/><rect width="1600" height="900" fill="url(#a)"/><rect width="1600" height="900" fill="url(#b)"/><g filter="url(#blur)" opacity=".7"><circle cx="380" cy="180" r="80" fill="#fff"/><circle cx="1250" cy="210" r="120" fill="#57d8ff"/><circle cx="930" cy="160" r="90" fill="#ff4338"/></g><g opacity=".25"><polygon points="360,0 520,0 910,900 700,900" fill="#fff"/><polygon points="1120,0 1280,0 770,900 540,900" fill="#fff"/></g><g transform="translate(790 330)"><circle r="66" fill="#151923" stroke="rgba(255,255,255,.32)" stroke-width="6"/><rect x="-58" y="-20" width="116" height="28" rx="10" fill="#030306"/><path d="M-110 100c32-52 188-52 220 0l35 250h-290z" fill="#f1e5cf"/><path d="M100 128l160-120" stroke="#f1e5cf" stroke-width="34" stroke-linecap="round"/><circle cx="280" cy="-10" r="20" fill="#f1e5cf"/></g><g transform="translate(800 735)"><rect x="-430" y="-70" width="860" height="140" rx="24" fill="rgba(0,0,0,.76)" stroke="rgba(255,255,255,.16)"/><circle cx="-260" cy="0" r="66" fill="#10131b" stroke="rgba(255,255,255,.26)" stroke-width="9"/><circle cx="260" cy="0" r="66" fill="#10131b" stroke="rgba(255,255,255,.26)" stroke-width="9"/><g stroke="#28f06a" stroke-width="5"><path d="M-50-28v56M-14-38v76M22-22v44M58-32v64"/></g></g><g opacity=".28" fill="#fff"><circle cx="120" cy="780" r="24"/><circle cx="230" cy="815" r="20"/><circle cx="340" cy="775" r="28"/><circle cx="460" cy="812" r="22"/><circle cx="560" cy="785" r="25"/><circle cx="1380" cy="805" r="30"/></g></svg>