<svg xmlns="http://www.w3.org/2000/svg" width="1200" height="1500" viewBox="0 0 1200 1500" role="img" aria-label="Premium artist portrait visual"><defs><radialGradient id="a" cx="52%" cy="20%" r="80%"><stop stop-color="#ffd166" stop-opacity=".42"/><stop offset=".4" stop-color="#111"/><stop offset="1" stop-color="#030306"/></radialGradient><radialGradient id="b" cx="15%" cy="85%" r="65%"><stop stop-color="#28f06a" stop-opacity=".32"/><stop offset="1" stop-color="#030306" stop-opacity="0"/></radialGradient><filter id="blur"><feGaussianBlur stdDeviation="24"/></filter></defs><rect width="1200" height="1500" fill="#030306"/><rect width="1200" height="1500" fill="url(#a)"/><rect width="1200" height="1500" fill="url(#b)"/><g filter="url(#blur)" opacity=".65"><circle cx="880" cy="260" r="150" fill="#ffd166"/><circle cx="280" cy="1050" r="170" fill="#28f06a"/></g><g transform="translate(600 405)"><circle r="128" fill="#151923" stroke="rgba(255,255,255,.28)" stroke-width="9"/><path d="M-62 36c35 42 92 42 126 0" fill="none" stroke="rgba(255,255,255,.58)" stroke-width="16" stroke-linecap="round"/><rect x="-108" y="-38" width="216" height="52" rx="18" fill="#050506"/><circle cx="-54" cy="-12" r="18" fill="rgba(255,255,255,.17)"/><circle cx="54" cy="-12" r="18" fill="rgba(255,255,255,.17)"/></g><g transform="translate(600 700)"><path d="M-235 0c65-105 405-105 470 0l90 530h-650z" fill="#f1e5cf"/><path d="M-115 30h230l-70 250h-90z" fill="#040507" opacity=".2"/><g fill="#ffd166"><circle cx="0" cy="115" r="10"/><circle cx="0" cy="190" r="10"/><circle cx="0" cy="265" r="10"/></g></g><g opacity=".14" fill="#fff"><circle cx="120" cy="1300" r="55"/><circle cx="1030" cy="1250" r="65"/><circle cx="170" cy="260" r="42"/></g></svg>