<svg xmlns="http://www.w3.org/2000/svg" width="1200" height="1500" viewBox="0 0 1200 1500" role="img" aria-label="Press close-up artist visual"><defs><radialGradient id="a" cx="52%" cy="25%" r="72%"><stop stop-color="#ffffff" stop-opacity=".34"/><stop offset=".35" stop-color="#14161d"/><stop offset="1" stop-color="#030306"/></radialGradient><radialGradient id="b" cx="70%" cy="70%" r="55%"><stop stop-color="#ffd166" stop-opacity=".28"/><stop offset="1" stop-color="#030306" stop-opacity="0"/></radialGradient><filter id="blur"><feGaussianBlur stdDeviation="20"/></filter></defs><rect width="1200" height="1500" fill="#030306"/><rect width="1200" height="1500" fill="url(#a)"/><rect width="1200" height="1500" fill="url(#b)"/><g filter="url(#blur)" opacity=".55"><circle cx="860" cy="200" r="120" fill="#fff"/><circle cx="230" cy="1080" r="155" fill="#ffd166"/></g><g transform="translate(600 465)"><circle r="150" fill="#151923" stroke="rgba(255,255,255,.3)" stroke-width="10"/><rect x="-126" y="-42" width="252" height="62" rx="20" fill="#050506"/><circle cx="-64" cy="-10" r="20" fill="rgba(255,255,255,.16)"/><circle cx="64" cy="-10" r="20" fill="rgba(255,255,255,.16)"/><path d="M-72 48c40 46 104 46 144 0" fill="none" stroke="rgba(255,255,255,.55)" stroke-width="17" stroke-linecap="round"/><path d="M-92 176c55 45 130 45 184 0" fill="none" stroke="#ffd166" stroke-width="18" stroke-linecap="round"/></g><g transform="translate(600 810)"><path d="M-260 0c70-112 450-112 520 0l105 560h-730z" fill="#101014"/><path d="M-120 45h240l-75 260h-90z" fill="#f1e5cf" opacity=".16"/></g><g opacity=".13" fill="#fff"><circle cx="130" cy="240" r="46"/><circle cx="1040" cy="1110" r="70"/><circle cx="180" cy="1310" r="55"/></g></svg>